<?xml version="1.0" encoding="iso-8859-1"?>
<!-- Uploaded to: SVG Repo, www.svgrepo.com, Generator: SVG Repo Mixer Tools -->
<svg height="800px" width="800px" version="1.1" id="Layer_1" xmlns="http://www.w3.org/2000/svg" xmlns:xlink="http://www.w3.org/1999/xlink" 
	 viewBox="0 0 512 512" xml:space="preserve">
<path style="fill:#EBAFD1;" d="M132.526,134.454c-28.565-28.565-74.876-28.564-103.44,0c-28.565,28.565-28.565,74.875,0,103.441
	l103.44,103.439l103.44-103.439c28.564-28.565,28.565-74.876,0-103.441C207.403,105.889,161.09,105.89,132.526,134.454z"/>
<path style="fill:#88888F;" d="M333.67,0h-36.571v401.039c-13.824-6.89-30.626-10.943-48.762-10.943
	c-47.128,0-85.333,27.29-85.333,60.952S201.209,512,248.337,512s85.333-27.29,85.333-60.952V120.68
	c97.524,0,121.905,97.524,121.905,170.667c30.885-30.885,48.762-73.551,48.762-120.68C504.337,76.41,427.927,0,333.67,0z"/>
<path style="fill:#E592BF;" d="M235.966,134.454c-28.565-28.565-74.875-28.564-103.439-0.001v206.88l103.439-103.437
	C264.53,209.33,264.531,163.018,235.966,134.454z"/>
<path style="fill:#797781;" d="M333.67,0v120.68c97.524,0,121.905,97.524,121.905,170.667
	c30.885-30.885,48.762-73.551,48.762-120.68C504.337,76.41,427.927,0,333.67,0z"/>
</svg>