<svg version="1.1" xmlns="http://www.w3.org/2000/svg" xmlns:xlink="http://www.w3.org/1999/xlink" width="1560" height="804"><defs/><g><path fill="none" stroke="#02063B" paint-order="fill stroke markers" d=" M 20 442.8216532769963 L 21 444.81679395585 L 22 446.80524459775864 L 23 448.7866945113549 L 24 450.76083409912104 L 25 452.7273549057628 L 26 454.6859496664052 L 27 456.6363123546014 L 28 458.5781382301495 L 29 460.511123886707 L 30 462.43496729919787 L 31 464.34936787100276 L 32 466.25402648092734 L 33 468.1486455299387 L 34 470.03292898766506 L 35 471.90658243864976 L 36 473.769313128353 L 37 475.6208300088942 L 38 477.46084378452764 L 39 479.28906695684447 L 40 481.1052138696935 L 41 482.9090007538145 L 42 484.70014577117666 L 43 486.47836905901505 L 44 488.24339277355875 L 45 489.9949411334433 L 46 491.732740462801 L 47 493.4565192340222 L 48 495.1660081101808 L 49 496.860939987118 L 50 498.5410500351763 L 51 500.20607574057874 L 52 501.8557569464465 L 53 503.48983589344743 L 54 505.1080572600705 L 55 506.7101682025194 L 56 508.29591839421903 L 57 509.865060064928 L 58 511.4173480394527 L 59 512.9525397759553 L 60 514.4703954038501 L 61 515.9706777612836 L 62 517.4531524321895 L 63 518.9175877829168 L 64 520.3637549984212 L 65 521.7914281180176 L 66 523.2003840706855 L 67 524.5904027099239 L 68 525.9612668481483 L 69 527.3127622906263 L 70 528.6446778689444 L 71 529.9568054740035 L 72 531.2489400885347 L 73 532.5208798191334 L 74 533.7724259278043 L 75 535.0033828630144 L 76 536.2135582902467 L 77 537.4027631220529 L 78 538.5708115475975 L 79 539.7175210616904 L 80 540.8427124933029 L 81 541.9462100335631 L 82 543.0278412632254 L 83 544.0874371796107 L 84 545.1248322230128 L 85 546.1398643025667 L 86 547.1323748215752 L 87 548.1022087022887 L 88 549.0492144101369 L 89 549.9732439774041 L 90 550.8741530263508 L 91 551.7518007917706 L 92 552.606050142986 L 93 553.4367676052738 L 94 554.2438233807204 L 95 555.0270913685032 L 96 555.7864491845924 L 97 556.5217781808741 L 98 557.232963463689 L 99 557.9198939117831 L 100 558.5824621936717 L 101 559.2205647844088 L 102 559.8341019817626 L 103 560.4229779217945 L 104 560.9871005938369 L 105 561.5263818548697 L 106 562.0407374432934 L 107 562.5300869920935 L 108 562.9943540413988 L 109 563.4334660504271 L 110 563.8473544088207 L 111 564.2359544473654 L 112 564.599205448096 L 113 564.9370506537824 L 114 565.2494372767987 L 115 565.5363165073707 L 116 565.7976435212021 L 117 566.0333774864788 L 118 566.2434815702482 L 119 566.4279229441747 L 120 566.586672789669 L 121 566.7197063023905 L 122 566.8270026961237 L 123 566.9085452060252 L 124 566.9643210912438 L 125 566.9943216369111 L 126 566.9985421555025 L 127 566.9769819875708 L 128 566.9296445018483 L 129 566.8565370947209 L 130 566.7576711890722 L 131 566.6330622324988 L 132 566.4827296948966 L 133 566.3066970654188 L 134 566.1049918488056 L 135 565.8776455610869 L 136 565.6246937246573 L 137 565.3461758627268 L 138 565.0421354931448 L 139 564.7126201216001 L 140 564.3576812341996 L 141 563.977374289422 L 142 563.5717587094537 L 143 563.1408978709039 L 144 562.6848590949022 L 145 562.2037136365793 L 146 561.6975366739343 L 147 561.1664072960878 L 148 560.6104084909244 L 149 560.0296271321265 L 150 559.4241539655995 L 151 558.794083595294 L 152 558.1395144684234 L 153 557.4605488600821 L 154 556.7572928572652 L 155 556.0298563422921 L 156 555.2783529756384 L 157 554.5029001781763 L 158 553.7036191128277 L 159 552.8806346656329 L 160 552.0340754262375 L 161 551.1640736678002 L 162 550.2707653263258 L 163 549.3542899794253 L 164 548.414790824507 L 165 547.4524146564024 L 166 546.4673118444299 L 167 545.4596363088998 L 168 544.4295454970642 L 169 543.3772003585168 L 170 542.3027653200446 L 171 541.2064082599363 L 172 540.0883004817522 L 173 538.9486166875575 L 174 537.7875349506269 L 175 536.605236687619 L 176 535.4019066302324 L 177 534.1777327963403 L 178 532.9329064606136 L 179 531.6676221246348 L 180 530.382077486507 L 181 529.0764734099646 L 182 527.7510138929883 L 183 526.405906035931 L 184 525.0413600091588 L 185 523.6575890202121 L 186 522.2548092804927 L 187 520.833239971481 L 188 519.3931032104894 L 189 517.9346240159566 L 190 516.4580302722899 L 191 514.9635526942573 L 192 513.4514247909399 L 193 511.92188282924633 L 194 510.37516579699616 L 195 508.8115153655788 L 196 507.23117585219313 L 197 505.6343941816728 L 198 504.0214198479051 L 199 502.3925048748483 L 200 500.7479037771528 L 201 499.08787352039417 L 202 497.4126734809228 L 203 495.7225654053365 L 204 494.0178133695838 L 205 492.29868373770177 L 206 490.56544512019786 L 207 488.81836833207996 L 208 487.0577263505416 L 209 485.2837942723105 L 210 483.4968492706647 L 211 481.69717055212527 L 212 479.88503931283066 L 213 478.0607386946 L 214 476.2245537406935 L 215 474.37677135127444 L 216 472.51768023858193 L 217 470.64757088182 L 218 468.76673548177087 L 219 466.8754679151393 L 220 464.9740636886347 L 221 463.0628198927992 L 222 461.14203515558745 L 223 459.2120095957068 L 224 457.2730447757243 L 225 455.32544365494834 L 226 453.3695105420916 L 227 451.4055510477237 L 228 449.4338720365198 L 229 447.4547815793143 L 230 445.46858890496446 L 231 443.4756043520348 L 232 441.4761393203071 L 233 439.4705062221245 L 234 437.45901843357836 L 235 435.4419902455431 L 236 433.41973681456943 L 237 431.39257411364196 L 238 429.36081888280813 L 239 427.32478857968937 L 240 425.28480132987806 L 241 423.24117587723185 L 242 421.1942315340699 L 243 419.14428813128126 L 244 417.0916659683521 L 245 415.03668576331927 L 246 412.979668602659 L 247 410.9209358911177 L 248 408.8608093014929 L 249 406.79961072437317 L 250 404.7376622178424 L 251 402.6752859571599 L 252 400.6128041844205 L 253 398.55053915820497 L 254 396.4888131032281 L 255 394.42794815999133 L 256 392.3682663344493 L 257 390.31008944769684 L 258 388.253739085685 L 259 386.1995365489745 L 260 384.1478028025321 L 261 382.0988584255817 L 262 380.0530235615135 L 263 378.01061786786283 L 264 375.97196046636407 L 265 373.93736989308843 L 266 371.9071640486738 L 267 369.8816601486528 L 268 367.861174673889 L 269 365.84602332112723 L 270 363.8365209536664 L 271 361.8329815521631 L 272 359.83571816557287 L 273 357.8450428622361 L 274 355.8612666811192 L 275 353.8846995832143 L 276 351.91565040310917 L 277 349.9544268007323 L 278 348.0013352132813 L 279 346.0566808073433 L 280 344.1207674312127 L 281 342.193897567416 L 282 340.27637228544927 L 283 338.3684911947365 L 284 336.4705523978166 L 285 334.5828524437652 L 286 332.7056862818597 L 287 330.8393472154937 L 288 328.98412685634935 L 289 327.1403150788333 L 290 325.30819997478454 L 291 323.48806780846064 L 292 321.6802029718096 L 293 319.884887940034 L 294 318.10240322745506 L 295 316.33302734368255 L 296 314.5770367500986 L 297 312.83470581666097 L 298 311.1063067790331 L 299 309.39210969604835 L 300 307.69238240751326 L 301 306.0073904923587 L 302 304.3373972271433 L 303 302.68266354491703 L 304 301.0434479944514 L 305 299.42000669984094 L 306 297.81259332048523 L 307 296.22145901145456 L 308 294.6468523842474 L 309 293.08901946794583 L 310 291.54820367077355 L 311 290.02464574206414 L 312 288.5185837346443 L 313 287.0302529676386 L 314 285.55988598970134 L 315 284.10771254268144 L 316 282.67395952572554 L 317 281.2588509598255 L 318 279.8626079528158 L 319 278.48544866482564 L 320 277.12758827419185 L 321 275.789238943838 L 322 274.470609788124 L 323 273.1719068401729 L 324 271.8933330196778 L 325 270.63508810119714 L 326 269.39736868293943 L 327 268.1803681560457 L 328 266.98427667437227 L 329 265.8092811247797 L 330 264.6555650979321 L 331 263.5233088596114 L 332 262.41268932255133 L 333 261.3238800187951 L 334 260.2570510725809 L 335 259.2123691737615 L 336 258.189997551758 L 337 257.1900959500563 L 338 256.21282060124753 L 339 255.25832420261654 L 340 254.32675589228373 L 341 253.4182612259023 L 342 252.5329821539156 L 343 251.67105699937758 L 344 250.83262043633994 L 345 250.0178034688099 L 346 249.22673341028084 L 347 248.4595338638401 L 348 247.7163247028559 L 349 246.99722205224754 L 350 246.3023382703412 L 351 245.63178193131404 L 352 244.98565780822986 L 353 244.36406685666833 L 354 243.76710619895093 L 355 243.194869108966 L 356 242.6474449975946 L 357 242.12491939874042 L 358 241.6273739559652 L 359 241.15488640973211 L 360 240.707530585259 L 361 240.28537638098325 L 362 239.88848975764046 L 363 239.51693272795805 L 364 239.17076334696597 L 365 238.8500357029257 L 366 238.55479990887915 L 367 238.28510209481846 L 368 238.04098440047838 L 369 237.82248496875198 L 370 237.6296379397309 L 371 237.4624734453712 L 372 237.32101760478488 L 373 237.20529252015936 L 374 237.11531627330362 L 375 237.05110292282313 L 376 237.01266250192336 L 377 237.0000010168418 L 378 237.01312044590972 L 379 237.05201873924307 L 380 237.11668981906263 L 381 237.20712358064378 L 382 237.32330589389522 L 383 237.46521860556686 L 384 237.6328395420863 L 385 237.82614251302314 L 386 238.04509731518155 L 387 238.28966973731906 L 388 238.5598215654923 L 389 238.85551058902783 L 390 239.17669060711722 L 391 239.5233114360361 L 392 239.89531891698513 L 393 240.2926549245523 L 394 240.71525737579478 L 395 241.16306023993937 L 396 241.63599354869956 L 397 242.1339834072081 L 398 242.65695200556266 L 399 243.20481763098377 L 400 243.77749468058215 L 401 244.37489367473384 L 402 244.99692127106144 L 403 245.64348027901843 L 404 246.3144696750754 L 405 247.00978461850428 L 406 247.72931646775973 L 407 248.47295279745424 L 408 249.24057741592415 L 409 250.03207038338465 L 410 250.8473080306698 L 411 251.68616297855584 L 412 252.54850415766376 L 413 253.43419682893872 L 414 254.34310260470292 L 415 255.27507947027797 L 416 256.2299818061747 L 417 257.20766041084596 L 418 258.2079625239987 L 419 259.2307318504629 L 420 260.2758085846123 L 421 261.3430294353332 L 422 262.432227651539 L 423 263.54323304822424 L 424 264.6758720330563 L 425 265.829967633498 L 426 267.0053395244597 L 427 268.20180405647477 L 428 269.4191742843943 L 429 270.65725999659696 L 430 271.9158677447091 L 431 273.1948008738306 L 432 274.49385955326215 L 433 275.81284080772775 L 434 277.1515385490902 L 435 278.5097436085509 L 436 279.88724376933243 L 437 281.28382379983725 L 438 282.6992654872769 L 439 284.1333476717675 L 440 285.58584628088533 L 441 287.0565343646778 L 442 288.54518213112397 L 443 290.0515569820388 L 444 291.57542354941677 L 445 293.11654373220694 L 446 294.67467673351615 L 447 296.24957909823297 L 448 297.8410047510669 L 449 299.4487050349977 L 450 301.07242875012673 L 451 302.711922192927 L 452 304.3669291958835 L 453 306.03719116751904 L 454 307.72244713279895 L 455 309.42243377390724 L 456 311.1368854713898 L 457 312.8655343456569 L 458 314.6081102988388 L 459 316.36434105698834 L 460 318.1339522126224 L 461 319.9166672675982 L 462 321.71220767631536 L 463 323.52029288923785 L 464 325.34064039673 L 465 327.1729657731972 L 466 329.01698272152703 L 467 330.87240311782307 L 468 332.73893705642314 L 469 334.61629289519703 L 470 336.5041773011142 L 471 338.4022952960772 L 472 340.31035030301103 L 473 342.2280441922026 L 474 344.1550773278836 L 475 346.09114861504685 L 476 348.0359555464928 L 477 349.989194250095 L 478 351.95055953627985 L 479 353.91974494571195 L 480 355.8964427971772 L 481 357.880344235658 L 482 359.8711392805908 L 483 361.8685168742999 L 484 363.87216493060026 L 485 365.88177038355934 L 486 367.89701923641366 L 487 369.9175966106299 L 488 371.94318679510417 L 489 373.97347329549143 L 490 376.0081388836564 L 491 378.0468656472405 L 492 380.08933503933474 L 493 382.13522792825177 L 494 384.1842246473904 L 495 386.2360050451818 L 496 388.2902485351131 L 497 390.34663414581837 L 498 392.4048405712295 L 499 394.4645462207802 L 500 396.5254292696531 L 501 398.58716770906466 L 502 400.64943939657826 L 503 402.71192210643824 L 504 404.7742935799177 L 505 406.83623157566956 L 506 408.89741392007704 L 507 410.9575185575922 L 508 413.01622360105665 L 509 415.07320738199604 L 510 417.1281485008793 L 511 419.1807258773375 L 512 421.23061880033146 L 513 423.2775069782623 L 514 425.32107058901687 L 515 427.36099032993855 L 516 429.39694746771795 L 517 431.42862388819447 L 518 433.4557021460607 L 519 435.47786551446313 L 520 437.4947980344896 L 521 439.506184564537 L 522 441.51171082955244 L 523 443.51106347013695 L 524 445.50393009150844 L 525 447.4899993123116 L 526 449.4689608132714 L 527 451.4405053856795 L 528 453.4043249797073 L 529 455.36011275253907 L 530 457.3075631163141 L 531 459.2463717858751 L 532 461.17623582631205 L 533 463.09685370029473 L 534 465.00792531518806 L 535 466.9091520699402 L 536 468.8002369017387 L 537 470.6808843324261 L 538 472.55080051466723 L 539 474.4096932778633 L 540 476.2572721738019 L 541 478.09324852203935 L 542 479.9173354550065 L 543 481.7292479628311 L 544 483.5287029378703 L 545 485.3154192189453 L 546 487.08911763527203 L 547 488.84952105008153 L 548 490.5963544039218 L 549 492.3293447576354 L 550 494.0482213350051 L 551 495.7527155650629 L 552 497.442561124053 L 553 499.1174939770448 L 554 500.77725241918773 L 555 502.421577116602 L 556 504.05021114689896 L 557 505.66290003932477 L 558 507.259391814521 L 559 508.8394370238959 L 560 510.4027887886002 L 561 511.9492028381011 L 562 513.4784375483496 L 563 514.9902539795333 L 564 516.484415913411 L 565 517.9606898902201 L 566 519.4188452451552 L 567 520.8586541444088 L 568 522.2798916207695 L 569 523.6823356087734 L 570 525.0657669794005 L 571 526.4299695743136 L 572 527.7747302396328 L 573 529.0998388592401 L 574 530.4050883876096 L 575 531.6902748821581 L 576 532.9551975351103 L 577 534.1996587048753 L 578 535.4234639469271 L 579 536.6264220441866 L 580 537.8083450368983 L 581 538.9690482519995 L 582 540.1083503319741 L 583 541.22607326319 L 584 542.3220424037131 L 585 543.3960865105952 L 586 544.4480377666296 L 587 545.4777318065726 L 588 546.4850077428256 L 589 547.4697081905726 L 590 548.4316792923723 L 591 549.3707707421971 L 592 550.2868358089185 L 593 551.1797313592333 L 594 552.0493178800286 L 595 552.8954595001799 L 596 553.7180240117801 L 597 554.5168828907981 L 598 555.291911317159 L 599 556.0429881942483 L 600 556.7699961678319 L 601 557.472821644393 L 602 558.1513548088807 L 603 558.8054896418686 L 604 559.4351239361199 L 605 560.0401593125572 L 606 560.6205012356336 L 607 561.1760590281046 L 608 561.7067458851952 L 609 562.2124788881638 L 610 562.6931790172576 L 611 563.1487711640593 L 612 563.579184143223 L 613 563.9843507035962 L 614 564.3642075387284 L 615 564.7186952967616 L 616 565.047758589705 L 617 565.3513460020887 L 618 565.6294100989969 L 619 565.8819074334803 L 620 566.1087985533441 L 621 566.3100480073124 L 622 566.4856243505674 L 623 566.6355001496628 L 624 566.7596519868098 L 625 566.8580604635365 L 626 566.9307102037187 L 627 566.9775898559822 L 628 566.9986920954766 L 629 566.9940136250201 L 630 566.9635551756141 L 631 566.9073215063294 L 632 566.8253214035624 L 633 566.7175676796624 L 634 566.5840771709293 L 635 566.4248707349836 L 636 566.2399732475074 L 637 566.0294135983563 L 638 565.7932246870475 L 639 565.5314434176179 L 640 565.2441106928579 L 641 564.9312714079217 L 642 564.5929744433106 L 643 564.2292726572373 L 644 563.8402228773659 L 645 563.425885891933 L 646 562.9863264402496 L 647 562.5216132025857 L 648 562.0318187894393 L 649 561.5170197301908 L 650 560.977296461146 L 651 560.4127333129677 L 652 559.823418497499 L 653 559.209444093981 L 654 558.5709060346651 L 655 557.9079040898239 L 656 557.2205418521626 L 657 556.5089267206321 L 658 555.7731698836491 L 659 555.0133863017224 L 660 554.2296946894911 L 661 553.4222174971751 L 662 552.5910808914427 L 663 551.7364147356978 L 664 550.8583525697884 L 665 549.9570315891415 L 666 549.0325926233267 L 667 548.0851801140512 L 668 547.1149420925927 L 669 546.1220301566676 L 670 545.1065994467461 L 671 544.0688086218107 L 672 543.0088198345663 L 673 541.9267987061045 L 674 540.822914300025 L 675 539.6973390960209 L 676 538.5502489629273 L 677 537.381823131244 L 678 536.1922441651302 L 679 534.9816979338788 L 680 533.7503735828759 L 681 532.4984635040462 L 682 531.2261633057922 L 683 529.9336717824317 L 684 528.6211908831355 L 685 527.288925680374 L 686 525.9370843378746 L 687 524.5658780780966 L 688 523.1755211492286 L 689 521.766230791712 L 690 520.338227204298 L 691 518.8917335096419 L 692 517.4269757194402 L 693 515.9441826991182 L 694 514.443586132068 L 695 512.9254204834508 L 696 511.38992296356025 L 697 509.8373334907596 L 698 508.2678946539957 L 699 506.6818516748934 L 700 505.07945236944175 L 701 503.46094710927196 L 702 501.8265887825379 L 703 500.1766327544034 L 704 498.51133682714067 L 705 496.8309611998507 L 706 495.1357684278064 L 707 493.42602338142916 L 708 491.70199320490457 L 709 489.96394727443976 L 710 488.21215715617564 L 711 486.4468965637541 L 712 484.668441315551 L 713 482.87706929158105 L 714 481.073060390078 L 715 479.256696483763 L 716 477.42826137580073 L 717 475.58804075545663 L 718 473.7363221534592 L 719 471.8733948970722 L 720 469.99955006488983 L 721 468.11508044135456 L 722 466.2202804710108 L 723 464.3154462124996 L 724 462.4008752922978 L 725 460.47686685821714 L 726 458.54372153266075 L 727 456.6017413656525 L 728 454.6512297876431 L 729 452.69249156209776 L 730 450.72583273787967 L 731 448.75156060142876 L 732 446.7699836287494 L 733 444.7814114372126 L 734 442.786154737177 L 735 440.78452528344326 L 736 438.77683582654083 L 737 436.76340006386255 L 738 434.7445325906505 L 739 432.72054885083946 L 740 430.69176508777156 L 741 428.6584982947819 L 742 426.62106616566996 L 743 424.5797870450614 L 744 422.5349798786652 L 745 420.48696416344154 L 746 418.43605989767894 L 747 416.38258753099615 L 748 414.32686791427324 L 749 412.2692222495174 L 750 410.20997203967795 L 751 408.14943903841055 L 752 406.08794519980404 L 753 404.0258126280773 L 754 401.9633635272486 L 755 399.9009201507945 L 756 397.8388047512963 L 757 395.7773395300895 L 758 393.71684658692146 L 759 391.6576478696218 L 760 389.60006512380147 L 761 387.5444198425779 L 762 385.4910332163438 L 763 383.44022608258257 L 764 381.3923188757359 L 765 379.3476315771389 L 766 377.3064836650219 L 767 375.26919406459314 L 768 373.2360810982084 L 769 371.20746243563167 L 770 369.1836550444025 L 771 367.1649751403079 L 772 365.15173813797566 L 773 363.14425860159207 L 774 361.14285019574993 L 775 359.1478256364413 L 776 357.1594966421945 L 777 355.1781738853693 L 778 353.20416694361603 L 779 351.23778425150266 L 780 349.27933305232483 L 781 347.3291193500977 L 782 345.3874478617442 L 783 343.4546219694846 L 784 341.5309436734318 L 785 339.6167135444063 L 786 337.71223067697105 L 787 335.81779264269915 L 788 333.9336954436797 L 789 332.0602334662664 L 790 330.1976994350822 L 791 328.3463843672798 L 792 326.50657752707195 L 793 324.6785663805348 L 794 322.86263655069035 L 795 321.0590717728806 L 796 319.26815385043244 L 797 317.4901626106274 L 798 315.72537586097985 L 799 313.9740693458286 L 800 312.236516703254 L 801 310.51298942232114 L 802 308.80375680066106 L 803 307.10908590239376 L 804 305.429241516399 L 805 303.7644861149448 L 806 302.11507981267556 L 807 300.48128032597003 L 808 298.86334293267447 L 809 297.26152043221447 L 810 295.67606310609733 L 811 294.1072186788044 L 812 292.5552322790853 L 813 291.0203464016581 L 814 289.5028008693179 L 815 288.00283279546716 L 816 286.52067654706553 L 817 285.0565637080111 L 818 283.6107230429567 L 819 282.1833804615643 L 820 280.77475898320876 L 821 279.38507870212993 L 822 278.01455675304436 L 823 276.66340727721854 L 824 275.3318413890089 L 825 274.0200671428767 L 826 272.72828950087893 L 827 271.45671030064386 L 828 270.2055282238349 L 829 268.97493876510566 L 830 267.7651342015557 L 831 266.5763035626868 L 832 265.4086326008671 L 833 264.26230376230944 L 834 263.13749615856204 L 835 262.03438553852504 L 836 260.9531442609883 L 837 259.8939412677016 L 838 258.856942056978 L 839 257.8423086578341 L 840 256.85019960467446 L 841 255.88076991252007 L 842 254.93417105278797 L 843 254.01055092962434 L 844 253.1100538567941 L 845 252.23282053513307 L 846 251.3789880305629 L 847 250.54868975267522 L 848 249.74205543388692 L 849 248.95921110916896 L 850 248.20027909635468 L 851 247.4653779770269 L 852 246.7546225779902 L 853 246.06812395332994 L 854 245.4059893670593 L 855 244.7683222763605 L 856 244.155222315419 L 857 243.56678527985628 L 858 243.00310311176216 L 859 242.46426388532842 L 860 241.95035179308803 L 861 241.46144713275987 L 862 240.99762629470231 L 863 240.5589617499778 L 864 240.1455220390289 L 865 239.7573717609694 L 866 239.39457156349044 L 867 239.0571781333848 L 868 238.74524418768956 L 869 238.45881846544907 L 870 238.1979457200997 L 871 237.9626667124772 L 872 237.75301820444773 L 873 237.56903295316425 L 874 237.41073970594792 L 875 237.2781631957966 L 876 237.17132413752023 L 877 237.0902392245043 L 878 237.03492112610155 L 879 237.00537848565224 L 880 237.00161591913394 L 881 237.02363401443992 L 882 237.0714293312876 L 883 237.144994401756 L 884 237.24431773145253 L 885 237.3693838013089 L 886 237.52017307000625 L 887 237.69666197702813 L 888 237.8988229463418 L 889 238.12662439070715 L 890 238.38003071661194 L 891 238.6590023298333 L 892 238.96349564162432 L 893 239.2934630755244 L 894 239.64885307479338 L 895 240.02961011046682 L 896 240.43567469003264 L 897 240.86698336672643 L 898 241.32346874944488 L 899 241.80505951327575 L 900 242.31168041064186 L 901 242.84325228305877 L 902 243.39969207350302 L 903 243.9809128393892 L 904 244.5868237661553 L 905 245.21733018145164 L 906 245.87233356993363 L 907 246.5517315886545 L 908 247.25541808305587 L 909 247.98328310355487 L 910 248.7352129227226 L 911 249.51109005305483 L 912 250.3107932653285 L 913 251.13419760754348 L 914 251.98117442444672 L 915 252.85159137763355 L 916 253.74531246622598 L 917 254.66219804812232 L 918 255.60210486181555 L 919 256.56488604877853 L 920 257.55039117640933 L 921 258.55846626153675 L 922 259.58895379448006 L 923 260.6416927636582 L 924 261.7165186807496 L 925 262.8132636063909 L 926 263.931756176419 L 927 265.0718216286457 L 928 266.23328183016304 L 929 267.41595530517793 L 930 268.61965726336575 L 931 269.84419962874455 L 932 271.0893910690613 L 933 272.3550370256864 L 934 273.6409397440144 L 935 274.9468983043614 L 936 276.2727086533595 L 937 277.6181636358392 L 938 278.98305302719643 L 939 280.36716356624106 L 940 281.7702789885169 L 941 283.19218006009413 L 942 284.63264461182325 L 943 286.0914475740483 L 944 287.5683610117748 L 945 289.06315416028247 L 946 290.5755934611832 L 947 292.10544259891344 L 948 293.65246253765747 L 949 295.21641155869776 L 950 296.79704529818116 L 951 298.3941167853019 L 952 300.0073764808895 L 953 301.6365723163983 L 954 303.28144973329404 L 955 304.94175172282644 L 956 306.61721886618756 L 957 308.3075893750454 L 958 310.0125991324464 L 959 311.7319817340853 L 960 313.4654685299282 L 961 315.21278866619036 L 962 316.9736691276555 L 963 318.74783478033356 L 964 320.5350084144514 L 965 322.33491078776416 L 966 324.1472606691881 L 967 325.9717748827418 L 968 327.80816835179075 L 969 329.6561541435922 L 970 331.5154435141252 L 971 333.38574595320864 L 972 335.2667692298919 L 973 337.1582194381143 L 974 339.0598010426295 L 975 340.97121692518 L 976 342.8921684309233 L 977 344.8223554150949 L 978 346.761476289905 L 979 348.7092280716626 L 980 350.665306428114 L 981 352.6294057259958 L 982 354.601219078789 L 983 356.5804383946683 L 984 358.56675442464285 L 985 360.55985681087355 L 986 362.5594341351678 L 987 364.5651739676371 L 988 366.57676291551275 L 989 368.59388667211476 L 990 370.61623006595937 L 991 372.6434771100061 L 992 374.6753110510289 L 993 376.7114144191079 L 994 378.7514690772346 L 995 380.79515627101875 L 996 382.84215667849435 L 997 384.8921504600127 L 998 386.9448173082156 L 999 388.9998364980847 L 1000 391.0568869370519 L 1001 393.11564721517146 L 1002 395.1757956553388 L 1003 397.2370103635509 L 1004 399.2989692792037 L 1005 401.36135022541106 L 1006 403.4238309593464 L 1007 405.48608922259143 L 1008 407.5478027914875 L 1009 409.6086495274848 L 1010 411.66830742747277 L 1011 413.7264546740954 L 1012 415.78276968603285 L 1013 417.83693116824753 L 1014 419.88861816218764 L 1015 421.93751009593393 L 1016 423.9832868342905 L 1017 426.0256287288043 L 1018 428.064216667709 L 1019 430.0987321257872 L 1020 432.1288572141371 L 1021 434.15427472984436 L 1022 436.174668205543 L 1023 438.1897219588625 L 1024 440.19912114175395 L 1025 442.2025517896826 L 1026 444.199700870686 L 1027 446.19025633428373 L 1028 448.1739071602338 L 1029 450.1503434071309 L 1030 452.119256260832 L 1031 454.08033808270966 L 1032 456.03328245771934 L 1033 457.97778424227516 L 1034 459.91353961192993 L 1035 461.84024610884484 L 1036 463.75760268904986 L 1037 465.66530976948053 L 1038 467.56306927478613 L 1039 469.4505846839056 L 1040 471.32756107639574 L 1041 473.1937051785143 L 1042 475.0487254090421 L 1043 476.89233192484176 L 1044 478.7242366661465 L 1045 480.5441534015669 L 1046 482.351797772816 L 1047 484.14688733913863 L 1048 485.92914162144166 L 1049 487.69828214612 L 1050 489.4540324885654 L 1051 491.1961183163593 L 1052 492.9242674321355 L 1053 494.6382098161101 L 1054 496.3376776682731 L 1055 498.0224054502297 L 1056 499.6921299266918 L 1057 501.3465902066072 L 1058 502.98552778392263 L 1059 504.60868657797664 L 1060 506.2158129735094 L 1061 507.8066558602915 L 1062 509.3809666723588 L 1063 510.9384994268493 L 1064 512.4790107624394 L 1065 514.0022599773665 L 1066 515.5080090670402 L 1067 516.9960227612289 L 1068 518.4660685608196 L 1069 519.9179167741476 L 1070 521.3513405528827 L 1071 522.7661159274761 L 1072 524.162021842154 L 1073 525.5388401894569 L 1074 526.8963558443195 L 1075 528.2343566976822 L 1076 529.5526336896339 L 1077 530.8509808420771 L 1078 532.12919529091 L 1079 533.3870773177262 L 1080 534.6244303810174 L 1081 535.8410611468854 L 1082 537.0367795192483 L 1083 538.2113986695427 L 1084 539.3647350659165 L 1085 540.496608501904 L 1086 541.6068421245836 L 1087 542.6952624622107 L 1088 543.7616994513219 L 1089 544.8059864633071 L 1090 545.8279603304454 L 1091 546.8274613713993 L 1092 547.8043334161648 L 1093 548.7584238304719 L 1094 549.6895835396349 L 1095 550.5976670518435 L 1096 551.4825324808962 L 1097 552.3440415683704 L 1098 553.1820597052235 L 1099 553.9964559528269 L 1100 554.7871030634235 L 1101 555.5538775000109 L 1102 556.2966594556437 L 1103 557.0153328721522 L 1104 557.7097854582773 L 1105 558.3799087072152 L 1106 559.0255979135717 L 1107 559.646752189722 L 1108 560.243274481574 L 1109 560.8150715837335 L 1110 561.3620541540663 L 1111 561.8841367276588 L 1112 562.381237730171 L 1113 562.8532794905827 L 1114 563.3001882533291 L 1115 563.7218941898252 L 1116 564.1183314093765 L 1117 564.4894379694741 L 1118 564.8351558854728 L 1119 565.1554311396516 L 1120 565.4502136896535 L 1121 565.7194574763053 L 1122 565.9631204308125 L 1123 566.1811644813347 L 1124 566.3735555589323 L 1125 566.5402636028908 L 1126 566.6812625654178 L 1127 566.796530415712 L 1128 566.8860491434064 L 1129 566.949804761382 L 1130 566.987787307953 L 1131 566.999990848424 L 1132 566.9864134760165 L 1133 566.9470573121673 L 1134 566.881928506197 L 1135 566.791037234349 L 1136 566.6743976981996 L 1137 566.5320281224391 L 1138 566.363950752024 L 1139 566.1701918487014 L 1140 565.9507816869059 L 1141 565.7057545490286 L 1142 565.4351487200616 L 1143 565.1390064816151 L 1144 564.8173741053112 L 1145 564.4703018455544 L 1146 564.0978439316793 L 1147 563.7000585594769 L 1148 563.2770078821027 L 1149 562.8287580003639 L 1150 562.3553789523928 L 1151 561.8569447027028 L 1152 561.3335331306307 L 1153 560.7852260181705 L 1154 560.2121090371925 L 1155 559.6142717360591 L 1156 558.9918075256323 L 1157 558.3448136646787 L 1158 557.6733912446728 L 1159 556.9776451740013 L 1160 556.2576841615727 L 1161 555.5136206998303 L 1162 554.7455710471761 L 1163 553.9536552098059 L 1164 553.137996922958 L 1165 552.2987236315804 L 1166 551.4359664704173 L 1167 550.5498602435198 L 1168 549.6405434031832 L 1169 548.7081580283136 L 1170 547.7528498022292 L 1171 546.7747679898966 L 1172 545.7740654146089 L 1173 544.750898434108 L 1174 543.7054269161524 L 1175 542.6378142135403 L 1176 541.5482271385841 L 1177 540.4368359370476 L 1178 539.3038142615451 L 1179 538.1493391444078 L 1180 536.9735909700246 L 1181 535.7767534466552 L 1182 534.5590135777278 L 1183 533.3205616326196 L 1184 532.0615911169272 L 1185 530.7822987422325 L 1186 529.4828843953662 L 1187 528.1635511071762 L 1188 526.824505020805 L 1189 525.4659553594788 L 1190 524.0881143938187 L 1191 522.6911974086722 L 1192 521.275422669476 L 1193 519.8410113881531 L 1194 518.3881876885475 L 1195 516.917178571407 L 1196 515.428213878913 L 1197 513.9215262587693 L 1198 512.3973511278516 L 1199 510.85592663542286 L 1200 509.2974936259243 L 1201 507.7222956013428 L 1202 506.1305786831649 L 1203 504.5225915739211 L 1204 502.89858551832526 L 1205 501.25881426402 L 1206 499.60353402192754 L 1207 497.9330034262178 L 1208 496.24748349389813 L 1209 494.54723758402827 L 1210 492.83253135657304 L 1211 491.1036327308916 L 1212 489.3608118438766 L 1213 487.60434100774637 L 1214 485.83449466749494 L 1215 484.05154935801284 L 1216 482.25578366087694 L 1217 480.4474781608238 L 1218 478.6269154019092 L 1219 476.7943798433598 L 1220 474.950157815129 L 1221 473.09453747315627 L 1222 471.2278087543445 L 1223 469.35026333125876 L 1224 467.462194566551 L 1225 465.56389746712495 L 1226 463.6556686380401 L 1227 461.73780623616835 L 1228 459.81060992360875 L 1229 457.8743808208637 L 1230 455.9294214597918 L 1231 453.97603573633586 L 1232 452.0145288630409 L 1233 450.0452073213656 L 1234 448.06837881379374 L 1235 446.08435221575843 L 1236 444.0934375273788 L 1237 442.09594582502405 L 1238 440.09218921270946 L 1239 438.0824807733284 L 1240 436.06713451973644 L 1241 434.0464653456852 L 1242 432.0207889766217 L 1243 429.9904219203581 L 1244 427.95568141761544 L 1245 425.9168853924583 L 1246 423.8743524026174 L 1247 421.82840158971646 L 1248 419.77935262940827 L 1249 417.7275256814234 L 1250 415.6732413395487 L 1251 413.6168205815328 L 1252 411.55858471893515 L 1253 409.4988553469223 L 1254 407.43795429401763 L 1255 405.3762035718182 L 1256 403.31392532467964 L 1257 401.251441779382 L 1258 399.1890751947836 L 1259 397.12714781146695 L 1260 395.0659818013913 L 1261 393.00589921755187 L 1262 390.947221943661 L 1263 388.89027164385493 L 1264 386.8353697124325 L 1265 384.7828372236405 L 1266 382.73299488150406 L 1267 380.68616296971845 L 1268 378.6426613016062 L 1269 376.60280917014495 L 1270 374.5669252980807 L 1271 372.53532778812615 L 1272 370.50833407325877 L 1273 368.48626086712306 L 1274 366.469424114543 L 1275 364.45813894215866 L 1276 362.45271960918586 L 1277 360.4534794583151 L 1278 358.4607308667531 L 1279 356.4747851974125 L 1280 354.4959527502642 L 1281 352.52454271385204 L 1282 350.5608631169832 L 1283 348.6052207805992 L 1284 346.6579212698374 L 1285 344.71926884628397 L 1286 342.789566420436 L 1287 340.8691155043715 L 1288 338.9582161646385 L 1289 337.0571669753721 L 1290 335.16626497164 L 1291 333.28580560303317 L 1292 331.4160826875022 L 1293 329.5573883654482 L 1294 327.7100130540785 L 1295 325.87424540202653 L 1296 324.0503722442531 L 1297 322.23867855722835 L 1298 320.4394474144046 L 1299 318.6529599419883 L 1300 316.87949527501195 L 1301 315.1193305137217 L 1302 313.37274068028046 L 1303 311.6399986757957 L 1304 309.9213752376814 L 1305 308.21713889735275 L 1306 306.5275559382707 L 1307 304.8528903543351 L 1308 303.1934038086359 L 1309 301.5493555925706 L 1310 299.9210025853276 L 1311 298.3085992137515 L 1312 296.71239741258864 L 1313 295.1326465851226 L 1314 293.569593564207 L 1315 292.0234825736959 L 1316 290.49455519028606 L 1317 288.9830503057705 L 1318 287.48920408971185 L 1319 286.01324995254305 L 1320 284.5554185090947 L 1321 283.1159375425639 L 1322 281.6950319689232 L 1323 280.2929238017771 L 1324 278.9098321176749 L 1325 277.5459730218781 L 1326 276.20155961459557 L 1327 274.876801957687 L 1328 273.57190704184075 L 1329 272.28707875423333 L 1330 271.0225178466702 L 1331 269.77842190422064 L 1332 268.55498531434444 L 1333 267.35239923651943 L 1334 266.17085157237415 L 1335 265.01052693632704 L 1336 263.8716066267418 L 1337 262.7542685975996 L 1338 261.65868743069404 L 1339 260.5850343083542 L 1340 259.5334769866956 L 1341 258.5041797694105 L 1342 257.4973034820949 L 1343 256.51300544712 L 1344 255.55143945905175 L 1345 254.61275576061925 L 1346 253.69710101924056 L 1347 252.80461830410619 L 1348 251.93544706382434 L 1349 251.0897231046335 L 1350 250.26757856918144 L 1351 249.4691419158791 L 1352 248.69453789882922 L 1353 247.9438875483333 L 1354 247.21730815198183 L 1355 246.51491323632703 L 1356 245.83681254914552 L 1357 245.18311204229002 L 1358 244.55391385513462 L 1359 243.94931629861634 L 1360 243.36941383987312 L 1361 242.81429708748433 L 1362 242.2840527773132 L 1363 241.7787637589542 L 1364 241.29850898278877 L 1365 240.8433634876485 L 1366 240.41339838909093 L 1367 240.00868086828802 L 1368 239.62927416152883 L 1369 239.27523755033968 L 1370 238.94662635222062 L 1371 238.64349191200282 L 1372 238.3658815938258 L 1373 238.11383877373697 L 1374 237.88740283291432 L 1375 237.68660915151278 L 1376 237.51148910313665 L 1377 237.36207004993713 L 1378 237.2383753383373 L 1379 237.14042429538426 L 1380 237.06823222572916 L 1381 237.021810409236 L 1382 237.00116609921912 L 1383 237.00630252131 L 1384 237.03721887295316 L 1385 237.09391032353153 L 1386 237.17636801512128 L 1387 237.28457906387587 L 1388 237.41852656203915 L 1389 237.57818958058692 L 1390 237.7635431724975 L 1391 237.97455837664913 L 1392 238.21120222234552 L 1393 238.47343773446735 L 1394 238.7612239392492 L 1395 239.0745158706821 L 1396 239.41326457753917 L 1397 239.77741713102418 L 1398 240.16691663304158 L 1399 240.58170222508647 L 1400 241.021709097754 L 1401 241.48686850086557 L 1402 241.97710775421072 L 1403 242.49235025890377 L 1404 243.0325155093512 L 1405 243.59751910583185 L 1406 244.1872727676832 L 1407 244.80168434709546 L 1408 245.44065784350954 L 1409 246.10409341861626 L 1410 246.7918874119569 L 1411 247.5039323571194 L 1412 248.24011699852966 L 1413 249.00032630883547 L 1414 249.7844415068783 L 1415 250.59234007625392 L 1416 251.42389578445454 L 1417 252.2789787025926 L 1418 253.15745522570202 L 1419 254.05918809361282 L 1420 254.9840364123992 L 1421 255.93185567639293 L 1422 256.90249779076237 L 1423 257.89581109465223 L 1424 258.9116403848791 L 1425 259.94982694018324 L 1426 261.01020854602774 L 1427 262.0926195199439 L 1428 263.1968907374196 L 1429 264.3228496583231 L 1430 265.47032035386405 L 1431 266.6391235340808 L 1432 267.8290765758544 L 1433 269.03999355144333 L 1434 270.2716852575331 L 1435 271.52395924480084 L 1436 272.7966198479837 L 1437 274.0894682164518 L 1438 275.40230234527814 L 1439 276.73491710680037 L 1440 278.08710428267347 L 1441 279.45865259640226 L 1442 280.8493477463532 L 1443 282.2589724392388 L 1444 283.6873064240679 L 1445 285.1341265265617 L 1446 286.59920668402276 L 1447 288.0823179806571 L 1448 289.5832286833425 L 1449 291.1017042778344 L 1450 292.6375075054109 L 1451 294.19039839994224 L 1452 295.7601343253856 L 1453 297.34647001369655 L 1454 298.9491576031504 L 1455 300.5679466770724 L 1456 302.20258430296315 L 1457 303.8528150720192 L 1458 305.5183811390408 L 1459 307.1990222627177 L 1460 308.89447584629386 L 1461 310.60447697859644 L 1462 312.3287584754274 L 1463 314.06705092131136 L 1464 315.8190827115893 L 1465 317.58458009485895 L 1466 319.363267215746 L 1467 321.15486615800666 L 1468 322.9590969879516 L 1469 324.77567779818344 L 1470 326.6043247516468 L 1471 328.44475212597564 L 1472 330.296672358137 L 1473 332.159796089363 L 1474 334.0338322103599 L 1475 335.9184879067971 L 1476 337.81346870505644 L 1477 339.71847851824344 L 1478 341.6332196924511 L 1479 343.5573930532654 L 1480 345.4906979525139 L 1481 347.4328323152395 L 1482 349.3834926868992 L 1483 351.34237428077915 L 1484 353.30917102561455 L 1485 355.2835756134159 L 1486 357.2652795474834 L 1487 359.253973190609 L 1488 361.2493458134576 L 1489 363.25108564311523 L 1490 365.25887991180673 L 1491 367.2724149057624 L 1492 369.29137601423594 L 1493 371.3154477786623 L 1494 373.34431394194513 L 1495 375.3776574978747 L 1496 377.4151607406572 L 1497 379.45650531455624 L 1498 381.50137226363586 L 1499 383.54944208159435 L 1500 385.60039476169004 L 1501 387.65390984673934 L 1502 389.709666479188 L 1503 391.76734345124527 L 1504 393.8266192550694 L 1505 395.88717213300623 L 1506 397.9486801278607 L 1507 400.0108211332029 L 1508 402.0732729436966 L 1509 404.13571330544136 L 1510 406.19781996632724 L 1511 408.2592707263838 L 1512 410.31974348812383 L 1513 412.3789163068709 L 1514 414.4364674410603 L 1515 416.49207540251393 L 1516 418.54541900667 L 1517 420.5961774227678 L 1518 422.6440302239778 L 1519 424.68865743746477 L 1520 426.7297395943871 L 1521 428.7669577798104 L 1522 430.7999936825378 L 1523 432.8285296448463 L 1524 434.8522487121177 L 1525 436.87083468236557 L 1526 438.88397215563884 L 1527 440.891346583303 L 1528 442.89264431718834 L 1529 444.8875526585945 L 1530 446.87575990715214 L 1531 448.85695540952383 L 1532 450.830829607943 L 1533 452.7970740885825 L 1534 454.7553816297415 L 1535 456.70544624985143 L 1536 458.64696325528274 L 1537 460.57962928795337 L 1538 462.5031423727282 L 1539 464.41720196460005" stroke-linecap="round" stroke-linejoin="round" stroke-miterlimit="10" stroke-width="30"/></g></svg>